<?xml version='1.0' encoding='iso-8859-1'?>
<svg version="1.1" xmlns="http://www.w3.org/2000/svg" viewBox="0 0 44 44" xmlns:xlink="http://www.w3.org/1999/xlink" enable-background="new 0 0 44 44">
  <g>
    <path d="m22,0c-12.2,0-22,9.8-22,22s9.8,22 22,22 22-9.8 22-22-9.8-22-22-22zm13,29c0,0.6-0.4,1-1,1h-7.9c-0.3,0-0.6,0.3-0.5,0.6l.5,2.1c0.2,0.6-0.3,1.2-1,1.2h-7.4c-0.7,0-1.1-0.6-1-1.2l.5-2.1c0.1-0.3-0.2-0.6-0.5-0.6h-6.7c-0.6,0-1-0.4-1-1v-18c0-0.6 0.4-1 1-1h24c0.6,0 1,0.4 1,1v18z"/>
    <path d="m30.5,14h-17c-0.3,0-0.5,0.2-0.5,0.5v11c0,0.3 0.2,0.5 0.5,0.5h17c0.3,0 0.5-0.2 0.5-0.5v-11c0-0.3-0.2-0.5-0.5-0.5z"/>
  </g>
</svg>
